Coordinates
version=1
nRows=4
nColumns=63
inDegrees=yes

Units are S.I. units (second, meters, Newtons, ...)
If the header above contains a line with 'inDegrees', this indicates whether rotational values are in degrees (yes) or radians (no).

endheader
time	pelvis_tilt	pelvis_list	pelvis_rotation	pelvis_tx	pelvis_ty	pelvis_tz	hip_flexion_r	hip_adduction_r	hip_rotation_r	knee_angle_r	knee_angle_r_beta	ankle_angle_r	subtalar_angle_r	mtp_angle_r	hip_flexion_l	hip_adduction_l	hip_rotation_l	knee_angle_l	knee_angle_l_beta	ankle_angle_l	subtalar_angle_l	mtp_angle_l	L5_S1_Flex_Ext	L5_S1_Lat_Bending	L5_S1_axial_rotation	L4_L5_Flex_Ext	L4_L5_Lat_Bending	L4_L5_axial_rotation	L3_L4_Flex_Ext	L3_L4_Lat_Bending	L3_L4_axial_rotation	L2_L3_Flex_Ext	L2_L3_Lat_Bending	L2_L3_axial_rotation	L1_L2_Flex_Ext	L1_L2_Lat_Bending	L1_L2_axial_rotation	L1_T12_Flex_Ext	L1_T12_Lat_Bending	L1_T12_axial_rotation	Abs_r3	Abs_r2	Abs_r1	Abs_t1	Abs_t2	neck_flexion	neck_bending	neck_rotation	arm_flex_r	arm_add_r	arm_rot_r	elbow_flex_r	pro_sup_r	wrist_flex_r	wrist_dev_r	arm_flex_l	arm_add_l	arm_rot_l	elbow_flex_l	pro_sup_l	wrist_flex_l	wrist_dev_l
      2.33333333	      7.16824288	     -2.51956605	     93.53577066	      0.11042826	      0.81525030	      0.84233928	      8.15425947	      2.79938494	     -6.35889565	      8.26338018	      0.14422319	     28.66538626	     15.94707708	      0.00000000	      8.50424203	     -1.95552247	      6.93991347	      9.36437167	      0.16343912	     24.84687837	     -5.99109487	      0.00000000	     -0.25030794	     -0.06524445	      1.68279373	     -0.46484687	     -0.08677512	      1.78796834	     -0.41123091	     -0.15863536	      1.78796834	     -0.28607694	     -0.15863536	      1.47244451	     -0.23243595	     -0.13304648	      1.36726990	     -0.14302596	     -0.10106365	      1.26209530	     -1.78792458	     -0.73805828	      9.35919388	      0.00000000	      0.00000000	      3.18335201	      5.46722023	     16.00046794	     17.93490482	    -42.04581155	     87.84354075	      0.13809626	      2.24221907	    -69.57843531	     -8.84349617	      1.76351649	    -45.21976384	     70.52587991	      0.13799396	      1.30915705	    -69.68235500	    -23.45546246
      2.35000000	      7.05295189	     -2.44889071	     93.41964570	      0.11120845	      0.81395642	      0.84333918	      8.38232360	      2.68820399	     -6.29995648	      8.76754974	      0.15302261	     28.91497903	     15.83460885	      0.00000000	      8.62778009	     -1.91043412	      6.99203794	      9.62663753	      0.16801652	     25.04106404	     -6.05430796	      0.00000000	     -0.30117434	     -0.04282496	      1.71646982	     -0.55931086	     -0.05695720	      1.82374918	     -0.49479932	     -0.10412461	      1.82374918	     -0.34421215	     -0.10412461	      1.50191109	     -0.27967049	     -0.08732866	      1.39463173	     -0.17209102	     -0.06633587	      1.28735236	     -2.15125816	     -0.48444454	      9.54649019	      0.00000000	      0.00000000	      4.06902433	      5.73587201	     15.97610938	     18.69127147	    -41.88767586	     88.87007216	      0.15993163	      2.64235099	    -69.22244359	     -9.12487791	      2.60974269	    -45.46968358	     71.75534500	      0.15239126	      1.55225928	    -69.56362099	    -23.37937666
      2.36666667	      6.91806648	     -2.39995663	     93.25224734	      0.11182138	      0.81262433	      0.84358568	      8.63202480	      2.58974365	     -5.79664688	      9.36292236	      0.16341382	     29.37464604	     15.02108080	      0.00000000	      8.77416778	     -1.85600182	      6.62452360	      9.97141251	      0.17403398	     25.46532004	     -5.80078188	      0.00000000	     -0.32107148	     -0.04407454	      1.96895694	     -0.59626184	     -0.05861914	      2.09201675	     -0.52748833	     -0.10716284	      2.09201675	     -0.36695259	     -0.10716284	      1.72283732	     -0.29814697	     -0.08987680	      1.59977752	     -0.18346024	     -0.06827146	      1.47671771	     -2.29338146	     -0.49858003	     10.95074783	      0.00000000	      0.00000000	      5.07485033	      6.56111667	     14.27193487	     17.40145155	    -41.69057479	     90.63789302	      0.24848470	      3.39938658	    -65.97143342	     -5.03770275	      4.86262560	    -45.48558816	     78.30328506	      0.22401408	      1.77648356	    -69.02756745	    -20.98124710
      2.38333333	      6.84448834	     -2.20291422	     93.14310165	      0.11181268	      0.81216334	      0.84367748	      8.70975351	      2.41131762	     -6.58806725	      9.96504780	      0.17392289	     29.85368124	     16.02563544	      0.00000000	      8.71635041	     -1.81631385	      6.80885817	     10.22758354	      0.17850501	     25.72868712	     -5.96525509	      0.00000000	     -0.33559781	     -0.05997607	      1.89440086	     -0.62323870	     -0.07976818	      2.01280091	     -0.55135365	     -0.14582582	      2.01280091	     -0.38355474	     -0.14582582	      1.65760075	     -0.31163613	     -0.12230321	      1.53920070	     -0.19176059	     -0.09290294	      1.42080064	     -2.39714163	     -0.67846133	     10.53608926	      0.00000000	      0.00000000	      5.57181664	      8.11377124	     13.59176857	     17.28831806	    -40.63708777	     87.09180994	      0.21834342	      1.90814407	    -49.90809016	     -9.95234606	      4.19086612	    -45.15059697	     81.47237219	      0.18402066	      1.45124559	    -67.93181593	    -20.05310915
